# xmcd CD database file
#
# Track frame offsets:
#	150
#	18056
#	30928
#	44917
#	57817
#	74253
#	89079
#	102796
#	117091
#	133251
#	142560
#	159239
#	177344
#	193849
#	205759
#	215413
#	230072
#	241497
#	256752
#	269715
#	283526
#	295973
#	311684
#	322311
#	333820
#
# Disc length: 4649 seconds
#
# Revision: 0
# Processed by: cddbd v1.5.1PL0 Copyright (c) Steve Scherf et al.
# Submitted via: CDex 1.51
#
DISCID=77122719
DTITLE=The Temperence Seven - The Best Of The Temperence Seven
DYEAR=1900
DGENRE=Jazz
TTITLE0=The Temperence Seven - You're driving me crazy
TTITLE1=The Temperence Seven - Charley My Boy
TTITLE2=The Temperence Seven - Pasadena
TTITLE3=The Temperence Seven - Sugar
TTITLE4=The Temperence Seven - Hard Hearted Hannah
TTITLE5=The Temperence Seven - Chili Bom Bom
TTITLE6=The Temperence Seven - The Charleston
TTITLE7=The Temperence Seven - The Black Bottom
TTITLE8=The Temperence Seven - Dinah
TTITLE9=The Temperence Seven - Kaiser Drag (Tiger Rag)
TTITLE10=The Temperence Seven - TCP That Certain Party
TTITLE11=The Temperence Seven - My Blue Heaven
TTITLE12=The Temperence Seven - Sahara
TTITLE13=The Temperence Seven - Everybody Loves My Baby
TTITLE14=The Temperence Seven - Runnin' Wild
TTITLE15=The Temperence Seven - The Moochie
TTITLE16=The Temperence Seven - The Shake
TTITLE17=The Temperence Seven - Bye Bye Baby
TTITLE18=The Temperence Seven - Ain't She Sweet
TTITLE19=The Temperence Seven - Seven And Eleven
TTITLE20=The Temperence Seven - China Boy
TTITLE21=The Temperence Seven - Brown Eyes Why Are You Blue
TTITLE22=The Temperence Seven - I Want To Be Happy
TTITLE23=The Temperence Seven - Vo Do Do Dee O Blues
TTITLE24=The Temperence Seven - Alexander's Rag Time Band
EXTD=
EXTT0=
EXTT1=
EXTT2=
EXTT3=
EXTT4=
EXTT5=
EXTT6=
EXTT7=
EXTT8=
EXTT9=
EXTT10=
EXTT11=
EXTT12=
EXTT13=
EXTT14=
EXTT15=
EXTT16=
EXTT17=
EXTT18=
EXTT19=
EXTT20=
EXTT21=
EXTT22=
EXTT23=
EXTT24=
PLAYORDER=
